<svg viewBox="0 0 1636 400" xmlns="http://www.w3.org/2000/svg"><g><g><g><g><g><line x1="50" y1="377" x2="45" y2="377" style="visibility: inherit;" fill="rgb(0, 0, 0)" stroke="rgb(204, 204, 204)" stroke-width="1px"></line><line x1="50" y1="342.72727272727275" x2="45" y2="342.72727272727275" style="visibility: inherit;" fill="rgb(0, 0, 0)" stroke="rgb(204, 204, 204)" stroke-width="1px"></line><line x1="50" y1="308.45454545454544" x2="45" y2="308.45454545454544" style="visibility: inherit;" fill="rgb(0, 0, 0)" stroke="rgb(204, 204, 204)" stroke-width="1px"></line><line x1="50" y1="274.1818181818182" x2="45" y2="274.1818181818182" style="visibility: inherit;" fill="rgb(0, 0, 0)" stroke="rgb(204, 204, 204)" stroke-width="1px"></line><line x1="50" y1="239.90909090909093" x2="45" y2="239.90909090909093" style="visibility: inherit;" fill="rgb(0, 0, 0)" stroke="rgb(204, 204, 204)" stroke-width="1px"></line><line x1="50" y1="205.63636363636363" x2="45" y2="205.63636363636363" style="visibility: inherit;" fill="rgb(0, 0, 0)" stroke="rgb(204, 204, 204)" stroke-width="1px"></line><line x1="50" y1="171.36363636363637" x2="45" y2="171.36363636363637" style="visibility: inherit;" fill="rgb(0, 0, 0)" stroke="rgb(204, 204, 204)" stroke-width="1px"></line><line x1="50" y1="137.09090909090915" x2="45" y2="137.09090909090915" style="visibility: inherit;" fill="rgb(0, 0, 0)" stroke="rgb(204, 204, 204)" stroke-width="1px"></line><line x1="50" y1="102.81818181818181" x2="45" y2="102.81818181818181" style="visibility: inherit;" fill="rgb(0, 0, 0)" stroke="rgb(204, 204, 204)" stroke-width="1px"></line><line x1="50" y1="68.54545454545453" x2="45" y2="68.54545454545453" style="visibility: inherit;" fill="rgb(0, 0, 0)" stroke="rgb(204, 204, 204)" stroke-width="1px"></line><line x1="50" y1="34.27272727272729" x2="45" y2="34.27272727272729" style="visibility: inherit;" fill="rgb(0, 0, 0)" stroke="rgb(204, 204, 204)" stroke-width="1px"></line><line x1="50" y1="0" x2="45" y2="0" style="visibility: inherit;" fill="rgb(0, 0, 0)" stroke="rgb(204, 204, 204)" stroke-width="1px"></line></g><g transform="translate(40, 0)"><text x="0" y="377" dx="0em" dy="0.3em" style="text-anchor: end; visibility: hidden; font-family: Roboto, sans-serif; font-size: 12px; font-weight: 200;" fill="rgb(33, 33, 33)" stroke="none" stroke-width="1px">0.05</text><text x="0" y="342.72727272727275" dx="0em" dy="0.3em" style="text-anchor: end; visibility: inherit; font-family: Roboto, sans-serif; font-size: 12px; font-weight: 200;" fill="rgb(33, 33, 33)" stroke="none" stroke-width="1px">0.06</text><text x="0" y="308.45454545454544" dx="0em" dy="0.3em" style="text-anchor: end; visibility: inherit; font-family: Roboto, sans-serif; font-size: 12px; font-weight: 200;" fill="rgb(33, 33, 33)" stroke="none" stroke-width="1px">0.07</text><text x="0" y="274.1818181818182" dx="0em" dy="0.3em" style="text-anchor: end; visibility: inherit; font-family: Roboto, sans-serif; font-size: 12px; font-weight: 200;" fill="rgb(33, 33, 33)" stroke="none" stroke-width="1px">0.08</text><text x="0" y="239.90909090909093" dx="0em" dy="0.3em" style="text-anchor: end; visibility: inherit; font-family: Roboto, sans-serif; font-size: 12px; font-weight: 200;" fill="rgb(33, 33, 33)" stroke="none" stroke-width="1px">0.09</text><text x="0" y="205.63636363636363" dx="0em" dy="0.3em" style="text-anchor: end; visibility: inherit; font-family: Roboto, sans-serif; font-size: 12px; font-weight: 200;" fill="rgb(33, 33, 33)" stroke="none" stroke-width="1px">0.1</text><text x="0" y="171.36363636363637" dx="0em" dy="0.3em" style="text-anchor: end; visibility: inherit; font-family: Roboto, sans-serif; font-size: 12px; font-weight: 200;" fill="rgb(33, 33, 33)" stroke="none" stroke-width="1px">0.11</text><text x="0" y="137.09090909090915" dx="0em" dy="0.3em" style="text-anchor: end; visibility: inherit; font-family: Roboto, sans-serif; font-size: 12px; font-weight: 200;" fill="rgb(33, 33, 33)" stroke="none" stroke-width="1px">0.12</text><text x="0" y="102.81818181818181" dx="0em" dy="0.3em" style="text-anchor: end; visibility: inherit; font-family: Roboto, sans-serif; font-size: 12px; font-weight: 200;" fill="rgb(33, 33, 33)" stroke="none" stroke-width="1px">0.13</text><text x="0" y="68.54545454545453" dx="0em" dy="0.3em" style="text-anchor: end; visibility: inherit; font-family: Roboto, sans-serif; font-size: 12px; font-weight: 200;" fill="rgb(33, 33, 33)" stroke="none" stroke-width="1px">0.14</text><text x="0" y="34.27272727272729" dx="0em" dy="0.3em" style="text-anchor: end; visibility: inherit; font-family: Roboto, sans-serif; font-size: 12px; font-weight: 200;" fill="rgb(33, 33, 33)" stroke="none" stroke-width="1px">0.15</text><text x="0" y="0" dx="0em" dy="0.3em" style="text-anchor: end; visibility: hidden; font-family: Roboto, sans-serif; font-size: 12px; font-weight: 200;" fill="rgb(33, 33, 33)" stroke="none" stroke-width="1px">0.16</text></g><line x1="50" y1="0" x2="50" y2="377" fill="rgb(0, 0, 0)" stroke="rgb(204, 204, 204)" stroke-width="1px"></line></g></g><g transform="translate(50, 0)" clip-path="url(#clip_0)"><clipPath id="clip_0"><rect width="1586" height="377"></rect></clipPath><g><g><g><line x1="0" y1="0" x2="0" y2="377" fill="rgb(0, 0, 0)" stroke="rgb(66, 66, 66)" stroke-width="1px" opacity="0.25"></line><line x1="113.28571428571428" y1="0" x2="113.28571428571428" y2="377" fill="rgb(0, 0, 0)" stroke="rgb(66, 66, 66)" stroke-width="1px" opacity="0.25"></line><line x1="226.57142857142856" y1="0" x2="226.57142857142856" y2="377" fill="rgb(0, 0, 0)" stroke="rgb(66, 66, 66)" stroke-width="1px" opacity="0.25"></line><line x1="339.85714285714283" y1="0" x2="339.85714285714283" y2="377" fill="rgb(0, 0, 0)" stroke="rgb(66, 66, 66)" stroke-width="1px" opacity="0.25"></line><line x1="453.1428571428571" y1="0" x2="453.1428571428571" y2="377" fill="rgb(0, 0, 0)" stroke="rgb(66, 66, 66)" stroke-width="1px" opacity="0.25"></line><line x1="566.4285714285714" y1="0" x2="566.4285714285714" y2="377" fill="rgb(0, 0, 0)" stroke="rgb(66, 66, 66)" stroke-width="1px" opacity="0.25"></line><line x1="679.7142857142857" y1="0" x2="679.7142857142857" y2="377" fill="rgb(0, 0, 0)" stroke="rgb(66, 66, 66)" stroke-width="1px" opacity="0.25"></line><line x1="793" y1="0" x2="793" y2="377" fill="rgb(0, 0, 0)" stroke="rgb(66, 66, 66)" stroke-width="1px" opacity="0.25"></line><line x1="906.2857142857142" y1="0" x2="906.2857142857142" y2="377" fill="rgb(0, 0, 0)" stroke="rgb(66, 66, 66)" stroke-width="1px" opacity="0.25"></line><line x1="1019.5714285714287" y1="0" x2="1019.5714285714287" y2="377" fill="rgb(0, 0, 0)" stroke="rgb(66, 66, 66)" stroke-width="1px" opacity="0.25"></line><line x1="1132.857142857143" y1="0" x2="1132.857142857143" y2="377" fill="rgb(0, 0, 0)" stroke="rgb(66, 66, 66)" stroke-width="1px" opacity="0.25"></line><line x1="1246.142857142857" y1="0" x2="1246.142857142857" y2="377" fill="rgb(0, 0, 0)" stroke="rgb(66, 66, 66)" stroke-width="1px" opacity="0.25"></line><line x1="1359.4285714285713" y1="0" x2="1359.4285714285713" y2="377" fill="rgb(0, 0, 0)" stroke="rgb(66, 66, 66)" stroke-width="1px" opacity="0.25"></line><line x1="1472.7142857142858" y1="0" x2="1472.7142857142858" y2="377" fill="rgb(0, 0, 0)" stroke="rgb(66, 66, 66)" stroke-width="1px" opacity="0.25"></line><line x1="1586" y1="0" x2="1586" y2="377" fill="rgb(0, 0, 0)" stroke="rgb(66, 66, 66)" stroke-width="1px" opacity="0.25"></line></g><g><line x1="0" y1="377" x2="1586" y2="377" fill="rgb(0, 0, 0)" stroke="rgb(66, 66, 66)" stroke-width="1px" opacity="0.25"></line><line x1="0" y1="342.72727272727275" x2="1586" y2="342.72727272727275" fill="rgb(0, 0, 0)" stroke="rgb(66, 66, 66)" stroke-width="1px" opacity="0.25"></line><line x1="0" y1="308.45454545454544" x2="1586" y2="308.45454545454544" fill="rgb(0, 0, 0)" stroke="rgb(66, 66, 66)" stroke-width="1px" opacity="0.25"></line><line x1="0" y1="274.1818181818182" x2="1586" y2="274.1818181818182" fill="rgb(0, 0, 0)" stroke="rgb(66, 66, 66)" stroke-width="1px" opacity="0.25"></line><line x1="0" y1="239.90909090909093" x2="1586" y2="239.90909090909093" fill="rgb(0, 0, 0)" stroke="rgb(66, 66, 66)" stroke-width="1px" opacity="0.25"></line><line x1="0" y1="205.63636363636363" x2="1586" y2="205.63636363636363" fill="rgb(0, 0, 0)" stroke="rgb(66, 66, 66)" stroke-width="1px" opacity="0.25"></line><line x1="0" y1="171.36363636363637" x2="1586" y2="171.36363636363637" fill="rgb(0, 0, 0)" stroke="rgb(66, 66, 66)" stroke-width="1px" opacity="0.25"></line><line x1="0" y1="137.09090909090915" x2="1586" y2="137.09090909090915" fill="rgb(0, 0, 0)" stroke="rgb(66, 66, 66)" stroke-width="1px" opacity="0.25"></line><line x1="0" y1="102.81818181818181" x2="1586" y2="102.81818181818181" fill="rgb(0, 0, 0)" stroke="rgb(66, 66, 66)" stroke-width="1px" opacity="0.25"></line><line x1="0" y1="68.54545454545453" x2="1586" y2="68.54545454545453" fill="rgb(0, 0, 0)" stroke="rgb(66, 66, 66)" stroke-width="1px" opacity="0.25"></line><line x1="0" y1="34.27272727272729" x2="1586" y2="34.27272727272729" fill="rgb(0, 0, 0)" stroke="rgb(66, 66, 66)" stroke-width="1px" opacity="0.25"></line><line x1="0" y1="0" x2="1586" y2="0" fill="rgb(0, 0, 0)" stroke="rgb(66, 66, 66)" stroke-width="1px" opacity="0.25"></line></g></g></g><g><g><line x1="0" y1="548.3636363636364" x2="1586" y2="548.3636363636364" fill="rgb(0, 0, 0)" stroke="rgb(153, 153, 153)" stroke-width="1.5px"></line></g></g><g><g><line x1="113.28571428571428" y1="0" x2="113.28571428571428" y2="377" fill="rgb(0, 0, 0)" stroke="rgb(153, 153, 153)" stroke-width="1.5px"></line></g></g><g><g><g><g><g><path stroke="rgb(255, 112, 67)" stroke-width="2px" d="M147.07091285714287,-7.153120091295641L148.80305142857142,7.137433660118254L150.0695857142857,4.462683167592215L152.60152142857143,6.463001108832103L155.30112,9.499501775256464L157.13295,13.820440152921437L157.23377428571428,36.97611881076773L157.69937857142858,23.279654576996222L157.8330557142857,42.3585173548472L159.43265,45.7661205467407L159.6660185714286,46.31547110014397L161.13193571428573,37.79685694176955L162.1311157142857,32.86375075699909L164.03091714285716,41.65014522381374L164.9972442857143,44.6595210402335L165.52968714285714,38.57993971433833L166.06326285714286,32.3496390433142L167.92907857142856,51.233461483496626L169.62836428571427,63.46196171818279L170.22764571428573,65.64089981524548L170.52785285714288,47.238770448480736L171.06142857142856,55.123710196375335L171.16112,41.99595436579898L172.62703714285715,47.68105402544622L174.72622142857142,57.78305789152738L175.45918,31.875633422600085L175.55887142857145,38.85328093651368L175.82509285714286,34.82822139024731L177.1584657142857,31.738136413259156L177.72489428571427,58.37294089466248L178.1576457142857,44.284529177563655L181.12346571428571,60.68574148233447L183.12295857142857,56.05023298884069L186.1544842857143,55.963310289907156L186.55438285714285,76.22262626560786L187.62040142857143,74.73605378689096L187.82091714285716,78.76763528872524L188.48703714285713,79.34324441480614L188.65356714285716,95.78563553169238L190.15233714285714,89.62080668608769L190.5522357142857,87.91014870404614L192.88478857142857,96.6704077811753L192.91877428571428,101.42431827580384L194.45153000000002,92.12354012179792L195.01795857142858,99.98889743553246L195.0836642857143,106.19463079207642L195.2501942857143,103.18184683962603L196.08397714285715,120.93436102444615L196.11683,121.56153780169522L196.51672857142856,125.98928067053096L196.68325857142858,121.07151080118638L197.64958571428573,101.92698917319169L198.14917571428572,78.68231573107941L198.34969142857142,72.5015366414299L202.74744285714283,79.66998865961548L204.5804057142857,76.44322027614048L206.21285285714288,61.672307242358116L209.7779542857143,87.01712341887871L212.14335999999997,76.82399451079348L214.50876571428572,94.00476026732416L214.60959,96.42848377668963L216.54224428571428,97.36243193946274L218.60744285714284,93.99209069322951L220.90714285714287,107.59802770198262L221.37274714285715,107.74057700183131L221.4395857142857,118.05349653498327L221.47357142857143,119.96033406444991L223.40509285714285,152.25209008069638L229.23590857142858,148.58982484761427L233.2348942857143,153.4555062372196L233.83417571428572,160.47526553035414L233.9010142857143,156.89116203165506L235.56744714285716,155.97770637271734L237.93285285714285,156.37953481970726L239.6649914285714,162.3265670990091L240.36509714285717,168.4362558960893L240.5984657142857,152.47305510431372L244.16356714285712,158.7878404703502L245.09590857142857,161.25119225545762L246.02938285714285,161.71547926752694L247.7615214285714,158.18883930851487L249.82785285714286,165.42247828048335L253.09274714285712,169.13168626821397L254.12591285714285,162.47309387552102L254.29244285714285,182.41804730295968L257.12458571428573,182.1659223356831L257.1914242857143,181.8927353115148L259.88989000000004,172.8164932353962L262.9554014285714,188.54072928474937L263.52183,184.185012183674L264.2219357142857,198.6306848074135L267.48683,205.52986291202149L268.6865257142857,204.10635306423282L268.8202028571428,196.51098601087327L269.0864242857143,203.24239000848618L272.8180557142857,211.8293466200379L273.28479285714286,208.3462244609209L274.55019428571427,214.79208785056358L274.95009285714286,225.24667212417205L276.3503042857143,225.52630446589586L278.91509285714284,230.3286941341712L279.0159171428572,233.12195181343074L281.54785285714286,227.71908710829922L281.6146914285714,231.21364612493485L283.41366857142856,226.1666049985323L284.3471428571429,228.53831723237727L287.84540571428573,227.93602567022944L290.84407857142855,227.1658251519181L291.37652142857144,236.35883944089252L291.8432585714286,236.28511576870986L293.87560428571425,226.47736330667564L297.1076457142857,227.23305732815055L298.1736642857143,238.56954106078769L302.00612,243.5813674070439L302.50570999999997,250.45439594885218L303.9716271428572,254.00976914170252L306.80377,259.46279058458487L307.3701985714286,266.4271770654768L307.46989,268.2061597534043L308.66958571428574,263.97094030482725L308.9029542857143,248.76469520896464L310.10265,252.43569201328455L310.8016228571429,248.38217740725602L312.8679542857143,253.37483856595128L313.53407428571427,260.8288065105628L317.23285285714286,252.70013302437607L317.56591285714285,241.51652980056707L319.86448,238.94351128861604L320.2983642857143,241.72347853994208L320.4977471428571,245.43671941733842L320.93163142857145,249.30270856005905L322.8303,254.3053725332284L323.5972442857143,259.3432057769042L323.76377428571425,257.4314060607486L325.7292814285714,262.9370936524597L330.5269314285714,274.4128219015401L332.3259085714286,272.3721136892414L333.2922357142857,262.45213181225637L335.0923457142857,254.06976738447875L336.39173285714287,260.8547429962389L336.4914242857143,254.91054990187172L336.8913228571429,255.99003552957168L337.9244885714285,260.57124346851054L341.3887657142857,257.8576871808379L341.65612,269.09513940991025L342.15571,278.3315084300565L345.3877514285714,275.1214518533193L346.2543871428571,277.21138804379905L346.9873457142857,275.2533551838225L350.05285714285714,276.0955738748127L350.3190785714286,277.50567077652966L351.68530428571427,273.83585982388115L354.75081571428575,266.94163543361174L356.8828528571429,268.7650189687696L357.8151942857143,263.29099100829836L357.84918,257.2575141973914L358.48244714285715,261.8463019886142L359.24825857142855,254.04771396914435L359.8815257142857,264.8896839096099L361.51397285714285,269.9955597334717L361.8470328571429,262.7398168526461L361.9478571428571,264.0523741423804L362.44744714285713,277.1112212869323L363.54631857142857,287.52095200208595L369.41112,290.7314011211309L369.6105028571428,281.3855985330996L371.8433642857143,269.23650441317824L372.7757057142857,273.8830686898835L373.1087657142857,281.86598479663934L374.27560857142856,273.0376707972469L376.5073371428572,268.7574599585932L377.57448857142856,264.9177725237063L379.5399957142857,268.33141721964404L380.7057057142857,274.1999428780713L382.03907857142855,278.62732026165554L385.83754857142856,284.1115732005211L387.00325857142855,275.2407821168954L387.2037742857143,262.75095310574574L389.5023414285714,269.74854786152844L390.9682585714286,274.92081668766866L391.93458571428573,272.6756725035566L392.1011157142857,277.7981885859154L392.4013228571429,278.0475889736779L395.3999957142857,271.8505935866054L395.4996871428571,266.70744154019667L396.43316142857145,263.8902606588458L396.76622142857144,267.21832671720233L398.6988757142857,273.04844449505083L399.8645857142857,269.92968748579455L400.99744285714286,267.3186316796966L402.9969357142857,269.965057314078L407.1284657142857,264.5751443927129L407.2281571428571,281.99636464942137L409.0939728571429,292.682710113682L409.96060857142857,287.1595707740429L410.0603,286.7404015763979L410.76040571428575,281.5843444191591L410.9937742857143,275.63699249121566L412.9264285714286,275.58742425568346L413.1258114285714,271.8450794585287L414.9916271428571,280.3508950490863L420.68876571428575,280.23188242826416L420.92213428571426,273.842173480216L421.82162285714287,273.07597229141686L423.6885714285714,280.99137192480316L424.75459000000006,271.6787689158976L426.88662714285715,278.3571765344841L426.98631857142857,276.68650506020487L427.6535714285714,278.58976312760166L428.75244285714285,277.84791802546033L431.3852028571429,271.7780903012154L431.6185714285714,277.62916952517463L432.0513228571428,279.99968071313157L434.05081571428576,272.1383941715986L435.04999571428567,281.1040869442991L435.8158071428572,275.63920519317884L436.4162214285714,275.5499219875548L438.7487742857143,276.28783999172197L441.24785714285713,273.1731197367939L443.3798942857143,279.87221976119815L448.4109128571429,285.09624964171593L449.27754857142855,289.04744240543357L452.0757057142857,287.36909093487566L455.6747928571429,285.8034597140602L455.9081614285714,287.57198208932954L459.6726457142857,286.4478800814801L459.77233714285717,289.0301698426956L460.4724428571429,288.5914945543708L462.43794999999994,294.36037917680085L462.7721428571428,302.0844881943488L463.8710142857143,298.52166306435345L466.7031571428571,296.84427141753804L467.26958571428577,299.86904889360846L467.73632285714285,292.29113743763605L468.2687657142857,289.1767340632234L468.8351942857143,292.6525286496348L470.1685671428571,276.0855134337131L471.7013228571428,281.37116813153165L471.7341757142857,277.03392543351L472.4671342857142,281.1083017780644L473.6339771428572,286.8411439484199L474.49948,289.9947936625515L474.7996871428572,293.4235847695316L476.53295857142854,289.93182720394356L476.63264999999996,281.37997002151894L477.76550714285713,283.46270124332887L477.8980514285715,284.0771226903515L478.66499571428574,282.2979189716298L478.8643785714286,273.7952914643115L478.9312171428571,273.80448539959133L480.26459,284.30637021469465L480.46397285714283,293.57444279159466L480.89785714285716,298.18706650217257L481.0643871428572,297.4371167380901L483.1964242857143,296.31912991558374L483.82969142857144,294.9533533345886L484.1287657142857,292.0418849516551L486.39448,295.30164874874197L486.46131857142854,284.5283822561792L486.4953042857143,275.9909973137559L488.46081142857145,277.46374177286145L493.7580514285714,280.8114965570779L495.5241757142857,277.6733296098101L496.19142857142856,288.2241069641507L497.2234614285714,282.88710680811874L497.5236685714286,285.78590576128886L498.0900971428572,286.36771924819175L498.6565257142857,295.0525662017969L499.68969142857145,302.4587800735735L501.38897714285713,302.59447760408267L502.1547885714286,294.4479363202376L502.6215257142857,296.5874460124482L505.08662285714286,298.9653249182348L508.88509285714287,311.35666191091957L512.0842814285714,299.9016538107926L512.2508114285714,293.3290023796049L513.4505071428572,308.00194010455493L514.4836728571429,306.9545672625933L517.7157142857143,300.11793918815346L518.5812171428571,299.5392026123418L518.7148942857143,305.59588713967156L519.2473371428571,303.92614658529L520.6475485714286,294.46758697846997L522.7795857142858,291.7921859247398L522.8792771428572,286.81093648861946L523.4128528571429,289.1438556027765L526.6109085714286,286.3809317269879L528.3770328571429,279.1020539337143L531.5422357142857,268.1817656774784L535.4743828571429,269.3838795690846L536.4078571428571,271.10324814693195L538.3733642857143,267.8119152164722L539.9389728571429,275.6720873815608L542.3383642857143,281.87134392480294L542.9716314285714,285.9210767080851L544.4035628571428,295.0830329926897L547.0023371428572,286.55634448401776L547.5687657142857,284.8839517336852L548.4693871428572,279.579394443212L549.16836,270.58543933773944L549.5682585714286,277.42378825917893L550.0678485714285,266.9992350864601L550.2015257142857,264.04854078148196L550.7679542857143,272.05921939253244L551.9676499999999,273.69501865231587L553.29989,292.06700578900285L554.3998942857143,294.7037078771967L558.0646871428571,296.97256288028103L559.8308114285715,295.9049791417504L559.9644885714285,300.9407540448943L560.6306085714285,300.2620722615836L562.2630557142857,301.8865879174556L563.2293828571428,299.22255943913774L564.6284614285714,307.0534819792425L566.3277471428571,313.4744365033775L567.0946914285714,312.0949563103438L569.0601985714286,296.76568348459426L569.15989,299.4808508233003L571.3259128571428,295.2480598407422L572.29224,295.7606082511584L573.4250971428571,294.0084271069034L574.5908071428571,295.01301273165706L575.8901942857143,291.8574581248806L578.3235714285714,290.35016036553714L578.9557057142857,284.5381958984292L579.6886642857143,286.9190786954902L582.4211157142857,289.0963511549859L587.1190742857143,299.59717547972855L589.31795,305.82460191679894L589.5513185714285,301.53707383825235L589.8515257142857,307.2371234722092L590.4179542857144,311.0365908066121L590.8178528571428,306.7252561898801L591.0172357142857,294.78101046209883L592.9838757142857,298.55866835773867L594.6491757142857,306.65330916731693L596.2159171428572,290.9559972508711L597.41448,295.31630521018036L598.2142771428571,295.54730241546116L598.3151014285714,293.83174479961974L600.8130514285714,291.9791291529578L601.0135671428571,285.5761847100273L602.0127471428572,277.8630925703715L602.3129542857143,291.07867589436836L602.4466314285714,302.9900077883013L602.6460142857143,308.55689371105194L605.7115257142857,306.93119645908683L605.7443785714286,313.4899604482107L606.0117328571429,309.22257721776003L606.1442771428572,312.4382303747716L606.7107057142857,301.357475763565L608.8438757142857,312.60777209274886L609.4771428571429,307.73240196211003L610.61,306.10045831143435L613.9745857142857,303.5666896721839L616.07377,303.25990895557516L617.6065257142857,302.1176585979053L619.0724428571428,288.80743340421935L619.70571,288.0698996010689L621.9385714285714,292.4809245496362L623.8700928571428,298.46667085054446L624.6370371428571,298.72177107431617L628.8354057142857,311.1046461779986L628.9022442857142,299.8264097279665L629.9682628571428,292.9291772340346L631.0014285714286,294.01253217097036L632.9669357142857,290.79737681335246L637.7317328571429,296.99304072171327L638.53153,305.9459636850125L638.8306042857142,303.99808484252793L640.5638757142857,302.13915017424983L640.6635671428571,302.72722475359586L645.6945857142857,288.5809493606942L646.1613228571429,292.8638648701808L649.5598942857143,292.99558725674933L650.26,295.25939232281837L654.6906042857142,294.4101673987974L657.0899957142857,276.3148671907599L657.8229542857143,295.55795375593016L658.3893828571428,298.98363651969476L659.9221385714286,293.6437772174713L661.0549957142857,293.93336736793583L663.2210185714287,298.28591730257443L665.8866314285714,296.53157808327586L666.0531614285715,287.89553014993004L668.4185671428571,289.9189856425476L669.6182628571429,294.74088280447074L671.2507099999999,295.9187672881744L673.3159085714285,303.02476305838775L673.3498942857143,301.11347042650334L674.4827514285714,295.87796864106764L674.9494885714286,291.45596444001814L676.3485671428571,296.9369299732992L681.9131614285715,290.7914551170595L682.9451942857144,294.72866838744756L684.0780514285714,303.0050584620667L686.4445900000001,313.7376585426344L687.6771385714286,312.7433921410391L688.7771428571428,299.4386970179745L689.3764242857143,305.771296504504L689.4432628571429,314.98198818881383L690.2090742857142,308.10846407881706L690.24306,299.07580242615654L690.2759128571429,302.5562944145972L690.3756042857143,308.96107253066515L691.0088714285714,299.274649650932L692.1757142857143,291.7572529420589L693.2077471428572,296.6783058458435L694.5071342857143,299.02758890092906L694.8401942857142,307.21844251312706L697.8060142857144,306.4479404048073L698.2727514285714,313.40795914213476L699.2390785714285,301.4331682544296L699.5053,300.3544560480093L700.4716271428571,304.65314195933763L701.4708071428571,300.29135672551934L703.7705071428571,299.78470751836244L705.4029542857143,296.42633472224975L706.5029585714286,294.5229243494287L711.4671385714286,295.092489411829L712.2997885714286,290.15969015264375L712.39948,299.505043199413L712.6996871428571,302.67232674290335L713.6331614285714,310.4882453362044L714.7988714285714,311.6328304313545L715.19877,308.0179917898894L717.3308071428571,308.4611058215958L720.16295,307.64718722338284L720.8959085714285,314.7258700696154L721.8293828571428,311.08392864082793L723.62836,309.51957068612717L728.0600971428571,308.59795827750014L728.09295,303.74214497094994L732.7580557142857,303.3649099386443L736.7898942857142,297.83230612721184L737.0232628571429,297.22646544584086L741.1876457142857,308.00275298966596L742.78724,317.08441180037835L744.9532628571428,310.14005207304507L745.58653,286.8510650054232L746.5188714285714,285.88370713569935L747.25183,282.3615029027979L747.9519357142857,294.650719394924L750.2176499999999,304.0049118749452L751.9837742857143,303.8986737661372L753.9164285714286,299.8993044931479L755.3823457142857,305.7082594844819L756.3486728571429,305.66183666557197L762.5125485714285,311.57730122082774L763.0121385714285,316.53555607734296L763.11183,314.4288136746007L763.8447885714286,312.01221478750307L764.0453042857143,317.01219579759487L765.6437657142857,323.3300305856551L766.1444885714286,323.20991001612265L767.6772442857143,315.1191543582835L768.1428485714285,309.557030343684L768.5098942857143,321.44776098831255L770.3428571428572,318.81640506193264L770.7087700000001,317.4382491327205L770.9092857142857,317.20600560006875L772.8747928571428,314.65025901874503L773.7742814285714,316.34278132004965L774.5400928571428,306.8190758409648L776.8726457142857,301.62041908550736L777.6056042857143,298.28746281003106L778.7056085714286,301.9120195553003L779.2720371428571,313.39370094118925L779.5054057142858,313.50228743279325L780.8376457142857,303.5506893163438L781.43806,300.95565373624345L781.6374428571428,295.43902887399605L781.7371342857142,295.9997587497962L784.2702028571429,297.58921495199706L784.3030557142857,299.1932649039961L784.3698942857143,295.2946896100749L785.8686642857143,302.2895449332808L786.90183,295.287538180103L787.8013185714285,299.8235452272284L787.9021428571428,313.6126396886653L788.0686728571429,317.5029467526382L789.9344885714286,317.8129366306361L790.4340785714286,318.23934905595826L790.7342857142856,322.72930277887735L790.7999914285714,319.700995266092L792.4335714285714,312.14834842656836L794.33224,305.9991267536255L795.8321428571428,310.2154022862787L797.1972357142857,300.410103513792L797.63112,297.92258854771285L797.6639728571429,304.78391084518887L798.3969314285714,297.37526738816473L798.5634614285715,295.7558491846038L798.9305071428572,297.41236647288815L802.6292857142857,291.5125279876848L803.3282585714286,286.1475721201413L805.6279585714285,296.91757115978066L805.7276499999999,292.87903674356244L805.7605028571429,305.11372815294834L807.3600971428571,304.1995182168954L808.1598942857142,309.4612524873061L810.0925485714286,319.4161129499854L812.5576457142856,326.2251212040734L813.8910185714286,336.71536179213325L814.15724,328.2855752160225L815.2232585714285,327.5641431613568L815.6571428571427,327.98654209973984L817.7891800000001,320.81087452488015L819.9552028571429,318.88720285003114L820.7210142857143,321.15382423352133L823.5203042857144,307.57744423726626L823.6199957142858,311.4367297354349L823.7865257142856,310.05474264553993L826.0193871428571,299.72276480640534L826.6186685714284,304.3050276934408L829.1177514285714,314.7137127518152L830.4171385714285,319.34493720155297L830.4499914285714,309.75615415002375L835.6815257142857,323.95243933852475L837.0806042857142,308.8311502430893L837.11459,305.2404571906419L839.2794799999999,307.66990426414975L839.4799957142858,304.72731089238806L840.3466314285714,303.6795163888956L841.0456042857144,306.64597039331375L841.24612,316.94658963863355L843.2444800000001,314.61524473442256L845.2111199999999,312.26043427849686L846.2771385714285,319.6752968444381L846.5105071428573,322.2396086270726L853.64071,319.00261087352624L854.4733600000001,317.1619246087728L854.9072442857143,317.583110563421L855.806732857143,319.49611244254925L856.0401014285713,323.70305187725893L856.5725442857143,315.5227125464609L856.8387657142857,313.4376380773465L857.3055028571429,302.99911395020865L858.238977142857,308.3390459880034L860.5375442857143,302.3082999467333L860.6372357142857,300.6397419894857L862.0374471428571,299.10139981093147L863.2031571428572,306.37667762097766L864.4357057142857,314.86579731810946L867.4683642857144,321.0892439416441L871.5659085714285,322.28743754354707L871.7992771428571,316.9820866299918L872.1991757142857,315.9410720387704L873.8984614285714,321.7129539796924L874.29836,320.28230242139904L877.2970328571429,313.3145396103455L877.3978571428572,314.9686085276549L882.2951985714286,317.85475896768173L882.4288757142858,312.824123165061L882.4617285714286,321.8662828608217L883.8608071428571,321.4112946115732L884.2278528571428,320.04373365432326L884.3943828571429,323.43811814782987L884.5609128571429,321.50655178754056L885.69377,328.6505276372848L886.02683,318.90467633211045L886.8934657142856,316.9297000144172L888.3922357142858,308.9338667083611L889.15918,314.02191457518956L890.8584657142857,316.3497118603939L891.6582628571429,312.09136163766397L892.2915300000001,309.1883265472157L892.7571342857143,318.1282670947522L893.8571385714285,323.42357728351084L897.6216228571428,322.1162079107262L899.2552028571429,317.1327157227035L901.9536685714287,321.0802881755611L902.3207142857143,324.9306770314953L902.9868342857143,321.80119760844923L904.9851942857143,319.6328965771697L905.4190785714286,311.5608537761036L906.6516271428571,312.44600374167726L907.3177471428571,318.05162673773896L907.684792857143,320.23745491949063L910.8828485714286,311.9811747912499L915.5808071428571,313.213806602046L916.8801942857143,328.54459780387253L917.8465214285715,326.44344403396866L919.1459085714285,331.4333162325059L920.7455028571429,321.00470858714385L922.3450971428571,321.4224758461467L922.4119357142857,325.34078216104507L922.6781571428571,313.6756599900412L923.6773371428573,317.94898455332054L924.4442814285713,316.7334595823586L924.9110185714285,316.65259116720335L926.8096871428571,316.69319890392427L931.5076457142858,318.366143808545L933.6408157142856,320.25653506163906L935.1735714285714,323.55285731640464L936.1727514285715,315.13049790757975L936.90571,315.56147322491915L937.1719314285715,322.13851198234835L941.2366228571428,320.62727002493585L942.2369357142857,317.00877783933515L942.9698942857142,319.38940603433497L944.0687657142856,326.06545920050513L946.5349957142859,324.85195161362856L947.8343828571429,333.27139305369326L950.6993785714286,335.4928939705321L953.1316228571429,327.2502825731825L953.9654057142857,322.16370528779663L954.3981571428573,333.11638635804877L954.6983642857143,336.0760672960202L957.3299914285715,329.54022264811425L959.2966314285715,324.92484097944146L963.0951014285714,328.0833660121329L963.5946914285715,334.4377088709708L966.2263185714285,337.0102033986575L969.1252999999999,338.6090092496173L972.09112,326.1275599242419L973.3236685714286,329.2944274100014L974.4893785714286,328.56559863442703L975.5893828571428,332.1997307945989L976.9556085714286,329.99505534217104L980.5535628571428,333.85234923000513L981.0871385714285,337.1551718708689L981.7872442857142,327.01355738616894L982.0863185714285,325.86956151304895L982.6198942857143,321.6976175540113L984.7190785714286,328.4049234536024L984.7519314285713,331.99073119177234L985.2186685714287,327.59017174447587L988.8834614285714,328.98855204312633L989.3173457142858,326.0855224542147L989.6832585714286,325.3640745512084L993.0149914285714,326.0986537317724L995.2478528571429,326.71925358853844L996.6469314285714,332.0428463538689L1001.9113185714286,319.2376742787308L1004.7106085714285,319.2835755037448L1004.7774471428571,331.6879305446601L1006.1436728571429,332.3509413628013L1006.1765257142858,338.0460259595729L1006.7101014285715,340.65819767191334L1007.1428528571429,328.2050572266568L1007.2096914285714,324.3719828257493L1010.5085714285714,312.8692118797611L1015.5056042857143,316.0076119575486L1017.6387742857142,319.59015043783677L1017.8381571428571,326.7708661502963L1018.038672857143,335.65856428877663L1018.1712171428571,338.773137236175L1018.2052028571429,331.3193909873956L1020.7042857142857,334.92069020224466L1022.0365257142856,323.48396270926617L1023.8694885714286,329.33387358765276L1027.8673414285713,334.1888635365004L1028.1335628571428,334.68372341475686L1029.7331571428572,321.4242367446353L1031.8651942857143,327.577806090186L1031.9660185714285,328.502135410687L1032.9980514285714,319.75565358570816L1033.3322442857143,323.3759602977774L1033.56448,327.0054080420343L1034.1648942857141,319.98518221421693L1036.0635628571429,318.15923453481645L1036.7308157142857,327.6999868711427L1036.8305071428572,327.3974949301711L1037.52948,333.4504065376061L1040.3956085714285,344.2939133037741L1043.4271342857144,342.73907388075895L1043.4939728571428,343.4505781151147L1044.5599914285713,335.18245368600253L1045.1604057142856,328.0877242000427L1054.5891757142856,327.484862762278L1055.4558114285715,331.8017882745709L1056.9217285714285,334.49725547506443L1058.7546914285715,329.8160150287417L1060.81989,334.13142151310586L1061.2537742857144,329.05314512813135L1064.3192857142856,333.4898439098541L1065.28448,336.6152921980251L1066.585,331.1735795872987L1068.74989,332.29562167920136L1075.9140785714285,330.32343456778085L1078.5457057142858,327.2625870608691L1079.4123414285716,323.36712562342166L1080.1453000000001,329.10133944208195L1080.7785671428571,326.00298151085485L1081.4446871428572,328.2715249685152L1081.6112171428572,324.89958967989537L1082.1447928571429,327.0702311936889L1082.5446914285715,327.2411690813113L1083.0771342857142,332.74792760397605L1083.9766228571427,338.81100460844306L1086.2423371428572,342.6721620437391L1088.3086685714286,346.905930835455L1088.57489,346.2535706485319L1095.2394885714284,341.8626131045948L1095.4728571428573,339.8763158262168L1095.7719314285714,346.413894374101L1097.4383642857142,342.286608547194L1097.5380557142857,335.6376424977301L1098.2381614285714,338.24240105381716L1098.63806,332.03707424822005L1099.2701942857143,320.94708209848756L1099.9034614285713,328.30310134276107L1104.43489,328.57204589355644L1107.1344885714286,325.72088963095126L1107.1673414285715,326.2051180153612L1108.3001985714286,323.53660038743465L1108.9334657142856,332.8633651291051L1110.4662214285713,337.54697343443047L1112.86448,333.145285296761L1113.0321428571428,326.5542977867367L1113.8976457142858,333.3355596951331L1115.4304014285715,338.6655734998705L1115.9299914285714,337.89134818653L1118.6624428571429,345.36075599773534L1120.0955071428573,350.63009272273143L1120.9621428571427,348.58655311959905L1121.3948942857144,346.36838561982904L1122.3272357142857,351.3548098401574L1123.7603,362.2359529428037L1127.3254014285715,343.85234257374753L1128.1580514285715,342.5559306591853L1128.3914200000002,349.10357411951577L1128.525097142857,344.4567012397627L1131.823977142857,334.34785857880416L1131.9236685714286,330.01728176311775L1133.2559085714286,323.77222644285547L1136.3882585714284,331.35939892440774L1136.854995714286,329.800523160642L1137.454277142857,338.28689410149116L1138.8544885714286,338.85402107832647L1142.1522357142856,338.34649139030194L1147.9173457142858,328.3037767336068L1149.6823371428573,336.2236942628613L1153.2814242857144,345.4185769919508L1153.6473371428572,339.3957982712851L1159.7115214285714,349.21586222217013L1160.945202857143,341.9359388682247L1161.6441757142857,345.0092566949801L1162.8778571428572,347.4919272401373L1164.07642,345.20221348830745L1164.9430557142857,350.3035818878889L1167.0093871428571,348.38052667907954L1169.374792857143,340.8256862377699L1170.2414285714285,338.2060437223606L1171.5736685714285,334.73025501523784L1173.1064242857142,339.6376035744639L1175.2724471428571,339.82226765803017L1175.5058157142857,338.98939262576255L1175.772037142857,334.1840732156419L1177.3716314285714,334.06059991175016L1177.6707057142858,323.5690397574922L1179.6373457142859,326.9525758457139L1180.070097142857,334.83482493367467L1184.9017328571429,340.8988788117452L1185.3016314285715,342.4729418400551L1186.400502857143,341.2150475100059L1187.8007142857143,344.0730922941018L1189.9656042857143,342.1208310670799L1192.4318342857143,344.79163315474295L1193.997442857143,350.01621969486274L1195.1971385714285,344.34554411903144L1196.1634657142856,346.48277009368405L1197.129792857143,332.50702615762094L1197.5625442857142,329.7361866661275L1197.6622357142858,329.0617514203552L1199.8622442857143,328.2433055469552L1199.9619357142858,330.609767343093L1201.395,336.6448078286942L1203.027447142857,328.0919156296466L1204.8932628571429,333.86628101289034L1209.2910142857143,338.1188272225541L1209.5243828571429,345.91936233960786L1209.5572357142858,341.64313414031585L1209.7906042857142,339.0084176470079L1211.956627142857,339.55536593501245L1212.8901014285714,336.29756853546445L1213.29,332.7188142645872L1213.7227514285714,335.21948802023377L1213.95612,339.2032616556754L1217.75459,343.65839344911535L1217.8871342857142,339.5577428723201L1218.786622857143,346.0302985583989L1218.8534614285716,346.8456406433935L1221.0863228571427,340.71620076111725L1221.852134285714,346.54518737560545L1224.1846871428572,353.77939942549045L1224.5177471428572,356.17526927305784L1225.0841757142857,351.515739622139L1225.3175442857143,336.47000976230373L1225.4172357142859,334.6840575819076L1225.883972857143,336.67433378910266L1226.2510185714286,338.64467023900204L1230.782447142857,332.8073366211455L1232.0149957142858,320.9818929813093L1233.8479585714285,329.3934096477225L1234.0801942857145,336.0087912376276L1236.2462171428572,338.221222401835L1237.0800000000002,333.6952367850678L1237.3790742857143,338.78258499162285L1237.778972857143,337.57778559974076L1238.4122399999999,338.08722103640093L1238.9786685714284,340.24065342226L1239.4782585714286,340.92327069259505L1240.7776457142857,341.35168930925124L1241.1775442857142,339.52284408722784L1242.0101942857143,340.028970387409L1243.0105071428573,340.77580093848377L1243.2438757142857,346.422351220057L1245.1765300000002,341.1236183088363L1246.7092857142857,341.040496626121L1247.34142,338.3789293984583L1247.5747885714286,328.94344074597035L1249.1075442857143,340.6340834985257L1250.8408157142858,343.76934974929276L1250.9405071428573,343.10124063831495L1252.106217142857,352.7479038717637L1255.2057142857143,349.9696974203895L1256.3385714285714,347.85091302129473L1256.438262857143,343.93049300105685L1258.1704014285715,336.24496822266485L1258.204387142857,336.8120160602163L1258.90336,328.4008512829152L1260.7363228571428,338.9169143209801L1263.6353042857143,346.3995878310959L1263.6681571428571,344.8546129189354L1264.9346914285713,343.58507077184873L1265.4342814285715,350.53450644645574L1266.1004014285716,349.37789049567556L1266.4006085714286,342.52127563452507L1266.7008157142857,346.5793950685307L1267.6999957142857,344.4022768269601L1269.3324428571427,344.91586249219387L1271.1654057142857,336.93153223526065L1272.2314242857142,339.3581952700555L1272.964382857143,337.74231187412306L1275.3966271428571,344.46453606209803L1280.4616314285713,334.5583194110612L1282.0940785714286,336.9012955719003L1283.293774285714,334.9769372682256L1285.3589728571428,327.982142887945L1287.9248942857143,336.7034252253824L1288.0245857142856,333.90426530679554L1290.5565214285714,341.8957177561954L1291.2566271428573,346.97564675487735L1291.5228485714285,358.41911378881633L1291.9567328571427,351.98547655842145L1292.0235714285714,354.1389025232548L1292.2229542857142,350.44793775220535L1294.3549914285716,350.28411773596076L1295.4878485714287,350.1331796532775L1295.5546871428571,358.47559739647124L1295.588672857143,352.4513001926086L1298.4536685714286,346.33791301929176L1298.55336,338.6558038856123L1299.4528485714286,335.9917827827247L1305.15112,343.7645354843211L1305.3844885714286,349.07422275594394L1307.5833642857144,353.7252462309584L1307.7498942857144,360.0700046348263L1309.1489728571428,357.8385290399268L1311.2153042857144,353.30697122876137L1311.781732857143,355.0522408779126L1314.0134614285714,354.71781574419185L1314.6807142857144,355.1006784466903L1315.9132628571429,356.41136992626394L1316.045807142857,359.623810516158L1318.2458157142858,356.1640145032212L1319.9779542857143,358.8581440101304L1320.4775442857142,363.1788114426208L1320.977134285714,356.19062122954057L1321.51071,348.65025098804153L1321.9434614285715,344.8024864996031L1323.1103042857142,346.47113958394056L1323.7435714285714,342.85493575023366L1323.975807142857,342.03874995661675L1331.739277142857,342.6975868834143L1333.7387700000002,339.9333033656068L1334.73795,335.4772238106892L1335.3712171428572,343.42802712487577L1338.337037142857,349.09800962181254L1339.6364242857142,349.8826634638184L1339.7701014285715,351.22293013899906L1340.0691757142858,352.9457887511731L1340.2696914285714,354.1619026797194L1341.1023414285714,352.04383970779224L1343.0021428571429,354.0307973666686L1344.4340742857144,355.30408757159427L1347.8666314285715,350.4234292362258L1349.8989771428571,348.4600637923172L1351.7308071428572,351.23508230098645L1352.8308114285715,355.79569972411L1354.0633599999999,352.9269720001273L1356.4627514285714,355.9383035204419L1356.6621342857143,356.31220353580176L1356.9623414285713,355.9595260668951L1358.7613185714285,354.5916070895284L1361.2604014285714,353.4142382195835L1362.3932585714285,351.84605901126093L1364.7926499999999,352.92862354537766L1367.7244842857142,350.3170231544243L1368.8901942857144,357.95408042032204L1370.9236728571427,352.0384020105009L1371.555807142857,352.3738040975112L1372.9888714285714,361.72333406915266L1375.2885714285715,362.6855097865785L1377.4534614285715,353.97661012713115L1378.18642,355.3147505338778L1382.4516271428572,352.93175540878855L1385.8173457142857,354.1470903617442L1387.6491757142858,351.51549295238334L1388.1487657142857,354.46366971380974L1390.4484657142857,359.2567569975497L1391.5813228571428,363.6400597428749L1394.0464200000001,358.95552996019177L1394.5799957142858,361.09799824477983L1394.9459085714286,358.3555651882864L1396.0787657142857,356.52836878636913L1398.7443785714286,351.7939830108592L1400.777857142857,354.09287824032L1400.81071,357.22760802684263L1401.3102999999999,359.1515695610799L1402.7433642857143,359.00667241691445L1403.4094842857144,361.1212744464199L1404.8425485714286,356.64543197811116L1405.0090785714285,363.30281851156394L1407.4073371428572,360.23681115693137L1412.1064285714285,357.4910462599253L1412.20612,354.862065299815L1412.87224,360.7783431514977L1412.905092857143,360.3571293407219L1413.0059171428572,363.223857626077L1417.4365214285715,362.2061809709404L1420.63571,366.61457132414307L1421.30183,364.1055642488958L1422.6012171428572,355.3789567350782L1422.968262857143,360.81936772983187L1430.9979542857143,364.5236197661128L1432.4310185714287,366.14735876563253L1433.7972442857142,366.6531691217792L1436.1286642857142,363.7828849494874L1437.0621385714287,361.7423836586927L1438.7614242857142,363.2348526584446L1441.9934657142858,367.4895732884676L1442.2596871428573,354.82381191469L1443.0266314285714,352.7544654598798L1443.1931614285713,362.484296369647L1443.75959,358.0320082575022L1445.4588757142858,357.7032979734943L1446.724277142857,363.1281296642819L1448.55724,367.1877248496656L1453.0886685714286,365.4211709893358L1453.52142,369.4957632126951L1455.9208114285714,362.6414163826003L1459.4190742857143,361.6429866063712L1462.3180557142857,360.71816098313883L1462.7179542857143,366.14136300894603L1463.783972857143,359.32981223289585L1464.717447142857,357.7465405152013L1467.6164285714285,357.6364437513981L1467.9494885714284,360.60669005383943L1468.1488714285713,363.54146168086106L1468.2825485714286,359.7610524750357L1468.9158157142856,358.75334545831265L1469.3157142857142,367.3506322411078L1469.38142,360.31216696280734L1469.8481571428572,354.2085639183661L1470.0486728571427,366.35766709720906L1472.4809171428572,368.6596716806041L1472.6803,368.40179712580556" style="fill: none;" fill="none"></path></g></g></g></g><g opacity="0.2"><g><g><g><path stroke="rgb(255, 112, 67)" stroke-width="2px" d="M127.31275142857143,-127.71445533362306L128.61213857142857,18.630269234830674L129.07887571428572,-49.55772967772048L139.44111999999998,-34.00466516884886L140.00754857142857,9.405075620521226L140.20693142857144,-67.50512509454381L141.14040571428572,-7.662735272537594L145.63784857142858,48.81238253008238L147.07091285714287,10.478114604949951L148.80305142857142,44.81076577576724L150.0695857142857,-2.5886923779140667L152.60152142857143,11.73643679510466L155.30112,17.504678867080006L157.13295,25.211857595227013L157.23377428571428,98.02233542637393L157.69937857142858,-12.828960136933738L157.8330557142857,92.6570894338868L159.43265,54.74976957928053L159.6660185714286,47.763755169781774L161.13193571428573,15.338734534653755L162.1311157142857,19.858306711370286L164.03091714285716,64.81425321644002L164.9972442857143,52.59332433072004L165.52968714285714,22.551960901780582L166.06326285714286,15.924307091669625L167.92907857142856,101.01807069778442L169.62836428571427,95.70072868737307L170.22764571428573,71.38537215644664L170.52785285714288,-1.2759292017329975L171.06142857142856,75.91127705574036L171.16112,7.3864181583578015L172.62703714285715,62.66904344341973L174.72622142857142,84.41561277346179L175.45918,-36.42575693672353L175.55887142857145,57.2488968318159L175.82509285714286,24.21670088442889L177.1584657142857,23.591548811305678L177.72489428571427,128.59197048707443L178.1576457142857,7.142352987419491L181.12346571428571,103.92530106414449L183.12295857142857,43.82934698733416L186.1544842857143,55.73415044762874L186.55438285714285,129.63355013999072L187.62040142857143,70.81690816445787L187.82091714285716,89.39635015075856L188.48703714285713,80.86075938289815L188.65356714285716,139.13375755331734L190.15233714285714,73.36807609688155L190.5522357142857,83.40023220669143L192.88478857142857,119.76563625444066L192.91877428571428,113.95735503326766L194.45153000000002,67.60330680825497L195.01795857142858,120.72483944351023L195.0836642857143,122.5552005496892L195.2501942857143,95.23905278335921L196.08397714285715,167.73644387451085L196.11683,123.21500385078517L196.51672857142856,137.66242096098986L196.68325857142858,108.10648114572875L197.64958571428573,51.455068517815L198.14917571428572,17.40090392936361L198.34969142857142,56.20675540512258L202.74744285714283,98.56863488934258L204.5804057142857,67.93628544699065L206.21285285714288,22.73080924424258L209.7779542857143,153.83527515693146L212.14335999999997,49.95120011676443L214.50876571428572,139.2995063527064L214.60959,102.81830030137843L216.54224428571428,99.82465891404588L218.60744285714284,85.10664558952504L220.90714285714287,143.46822527050972L221.37274714285715,108.11638879234141L221.4395857142857,145.24210257692772L221.47357142857143,124.98745118758896L223.40509285714285,237.3849013962529L229.23590857142858,138.93476196039808L233.2348942857143,166.28321171890607L233.83417571428572,178.98190366679972L233.9010142857143,147.44216189872137L235.56744714285716,153.56950509006327L237.93285285714285,157.43890072540805L239.6649914285714,178.00510674444112L240.36509714285717,184.54361727020958L240.5984657142857,110.38825301690538L244.16356714285712,175.43591098080984L245.09590857142857,167.74548332528636L246.02938285714285,162.93950866298243L247.7615214285714,148.89133396202868L249.82785285714286,184.49298102476382L253.09274714285712,178.91050732677633L254.12591285714285,144.9186230220578L254.29244285714285,235.0001972480254L257.12458571428573,181.50122924013573L257.1914242857143,181.17251497507095L259.88989000000004,148.88821867108345L262.9554014285714,229.9955334148624L263.52183,172.70175800811163L264.2219357142857,236.71473081545398L267.48683,223.71860518780622L268.6865257142857,200.35346346551722L268.8202028571428,176.48683650656181L269.0864242857143,220.98881872946566L272.8180557142857,234.4676867777651L273.28479285714286,199.1634478596124L274.55019428571427,231.7857276959853L274.95009285714286,252.80875793641263L276.3503042857143,226.26351700316775L278.91509285714284,242.9895396232605L279.0159171428572,240.4859947860241L281.54785285714286,213.47517106749797L281.6146914285714,240.42657444151968L283.41366857142856,212.8607693016529L284.3471428571429,234.79101312160492L287.84540571428573,226.3481660972942L290.84407857142855,225.13529651273382L291.37652142857144,260.594968020916L291.8432585714286,236.09075336022812L293.87560428571425,200.62056136131287L297.1076457142857,229.22534156658435L298.1736642857143,268.45663453774023L302.00612,256.79436413808304L302.50570999999997,268.574198468165L303.9716271428572,263.3830257410353L306.80377,273.83893802491104L307.3701985714286,284.787832333283L307.46989,272.89620502157646L308.66958571428574,252.8053617585789L308.9029542857143,208.6755035925995L310.10265,262.11377449740064L310.8016228571429,237.6956389004534L312.8679542857143,266.5373088934205L313.53407428571427,280.4801765463569L317.23285285714286,231.2699938335202L317.56591285714285,212.0324849377979L319.86448,232.16009884801778L320.2983642857143,249.05248311161995L320.4977471428571,255.22617263956505L320.93163142857145,259.49486175450414L322.8303,267.4942139170387L323.5972442857143,272.6247661465948L323.76377428571425,252.39120680906558L325.7292814285714,277.45208821242505L330.5269314285714,304.6670145582069L332.3259085714286,266.99206476590854L333.2922357142857,236.2994523183866L335.0923457142857,231.97080662033775L336.39173285714287,278.74240597269755L336.4914242857143,239.23949538035828L336.8913228571429,258.83595218441707L337.9244885714285,272.64897348934954L341.3887657142857,250.70376605879176L341.65612,298.72114983201027L342.15571,302.6819358468056L345.3877514285714,266.6585754237392L346.2543871428571,282.72121981870043L346.9873457142857,270.09126855297524L350.05285714285714,278.31596860560506L350.3190785714286,281.22319897196513L351.68530428571427,264.1609036759897L354.75081571428575,248.76595295017415L356.8828528571429,273.5721210160039L357.8151942857143,248.8594627488743L357.84918,241.35107533227313L358.48244714285715,273.94401525638324L359.24825857142855,233.48780009963298L359.8815257142857,293.473059207201L361.51397285714285,283.456505087289L361.8470328571429,243.6110401668332L361.9478571428571,267.51275245167994L362.44744714285713,311.5390910316597L363.54631857142857,314.96478752385485L369.41112,299.19531243497676L369.6105028571428,256.74666443738073L371.8433642857143,237.20707446065816L372.7757057142857,286.13310178301555L373.1087657142857,302.911854532632L374.27560857142856,249.76302479884842L376.5073371428572,257.4732677475973L377.57448857142856,254.794960195368L379.5399957142857,277.3310259634798L380.7057057142857,289.6715105230158L382.03907857142855,290.2994970001958L385.83754857142856,298.5700582211668L387.00325857142855,251.85415107824588L387.2037742857143,229.823222076351L389.5023414285714,288.19675221768296L390.9682585714286,288.55679813840175L391.93458571428573,266.7566560181705L392.1011157142857,291.30300371213394L392.4013228571429,278.70509908686984L395.3999957142857,255.51306029341438L395.4996871428571,253.14822250875562L396.43316142857145,256.4631474261934L396.76622142857144,275.9923190528696L398.6988757142857,288.41875500028783L399.8645857142857,261.70750991593707L400.99744285714286,260.43493909998375L402.9969357142857,276.94199762290174L407.1284657142857,250.36537396365947L407.2281571428571,327.92503623528916L409.0939728571429,320.8558027012782L409.96060857142857,272.59856706044894L410.0603,285.635319146243L410.76040571428575,267.9911028228023L410.9937742857143,259.95761013572866L412.9264285714286,275.4567443620075L413.1258114285714,261.97889772057533L414.9916271428571,302.7753179696473L420.68876571428575,279.91812188246035L420.92213428571426,256.99657716263425L421.82162285714287,271.05598733912814L423.6885714285714,301.85924368554896L424.75459000000006,247.1273609833284L426.88662714285715,295.9638875289397L426.98631857142857,272.2820075371049L427.6535714285714,283.60744348710233L428.75244285714285,275.89214457436043L431.3852028571429,255.77581721002406L431.6185714285714,293.0547420247035L432.0513228571428,286.2492102086544L434.05081571428576,251.41318419846624L435.04999571428567,304.74091334505516L435.8158071428572,261.231789667498L436.4162214285714,275.3145389909094L438.7487742857143,278.23326018452644L441.24785714285713,264.96158451925623L443.3798942857143,297.53348346190023L448.4109128571429,298.86869205398995L449.27754857142855,299.4642233279618L452.0757057142857,282.9443461488594L455.6747928571429,281.6758864955469L455.9081614285714,292.234450169585L459.6726457142857,283.48433842442256L459.77233714285717,295.83802466771823L460.4724428571429,287.43498697606003L462.43794999999994,309.56925681775266L462.7721428571428,322.4480483315208L463.8710142857143,289.128760448911L466.7031571428571,292.422057075934L467.26958571428577,307.8434622396122L467.73632285714285,272.31300723552704L468.2687657142857,280.9660342579538L468.8351942857143,301.81598710471934L470.1685671428571,232.40883695537394L471.7013228571428,295.3060759712349L471.7341757142857,265.5993765023622L472.4671342857142,291.8498394137079L473.6339771428572,301.95500057935715L474.49948,298.3089610907165L474.7996871428572,302.46312496066093L476.53295857142854,280.7262845310298L476.63264999999996,258.8341647223993L477.76550714285713,288.9535381008278L477.8980514285715,285.6969610506838L478.66499571428574,277.6072909859094L478.8643785714286,251.3792734904723L478.9312171428571,273.82872395623815L480.26459,311.99315745451236L480.46397285714283,318.0084523125129L480.89785714285716,310.347619920969L481.0643871428572,295.4599764509635L483.1964242857143,293.3717101107944L483.82969142857144,291.3526696210558L484.1287657142857,284.3661955784668L486.39448,303.8955714865165L486.46131857142854,256.12613423033196L486.4953042857143,253.4833461019126L488.46081142857145,281.34643171050334L493.7580514285714,289.6373955336484L495.5241757142857,269.39998038519514L496.19142857142856,316.03979271650314L497.2234614285714,268.8168336694891L497.5236685714286,293.4281939105554L498.0900971428572,287.9015911682086L498.6565257142857,317.948980897665L499.68969142857145,321.98425300825727L501.38897714285713,302.9522256390615L502.1547885714286,272.9706911173734L502.6215257142857,302.2279715646397L505.08662285714286,305.2342783971267L508.88509285714287,344.0247321643613L512.0842814285714,269.7020870013671L512.2508114285714,276.0011031519283L513.4505071428572,346.68513956124133L514.4836728571429,304.19331158833074L517.7157142857143,282.0941015373577L518.5812171428571,298.0134425488385L518.7148942857143,321.5635099844499L519.2473371428571,299.5241033055566L520.6475485714286,269.53138437867165L522.7795857142858,284.73885587399656L522.8792771428572,273.67855161157524L523.4128528571429,295.29427872191775L526.6109085714286,279.09685969081795L528.3770328571429,259.9122852059928L531.5422357142857,239.39191482012922L535.4743828571429,272.553088919683L536.4078571428571,275.6361289430748L538.3733642857143,259.134764763442L539.9389728571429,296.39435945315796L542.3383642857143,298.2148384478959L542.9716314285714,296.5976449549198L544.4035628571428,319.2372813793746L547.0023371428572,264.0768929611553L547.5687657142857,280.4749163009904L548.4693871428572,265.594652495601L549.16836,246.8741031505845L549.5682585714286,295.4521626884287L550.0678485714285,239.5163221765648L550.2015257142857,256.2694376138124L550.7679542857143,293.1782811853019L551.9676499999999,278.00758033719933L553.29989,340.50224460390484L554.3998942857143,301.65501338243484L558.0646871428571,302.9540897065943L559.8308114285715,293.09044019471514L559.9644885714285,314.2168878804554L560.6306085714285,298.472820287401L562.2630557142857,306.1694019192999L563.2293828571428,292.19921163266355L564.6284614285714,327.6986414031549L566.3277471428571,330.4024075215513L567.0946914285714,308.4581448923458L569.0601985714286,256.35214603489095L569.15989,306.63901926170695L571.3259128571428,284.08888361399823L572.29224,297.1118722422557L573.4250971428571,289.3890404538675L574.5908071428571,297.6614657423713L575.8901942857143,283.53826870701533L578.3235714285714,286.3763753636317L578.9557057142857,269.2157441215082L579.6886642857143,293.1959515241059L582.4211157142857,294.8364330936562L587.1190742857143,327.28116688132286L589.31795,322.2423625236208L589.5513185714285,290.23359072208405L589.8515257142857,322.2645270526409L590.4179542857144,321.05336832458323L590.8178528571428,295.3590103821321L591.0172357142857,263.2916353615848L592.9838757142857,308.51794826442546L594.6491757142857,327.9937258471142L596.2159171428572,249.57217492569578L597.41448,306.8116625574502L598.2142771428571,296.156295047565L598.3151014285714,289.3089110851288L600.8130514285714,287.09496062994003L601.0135671428571,268.6956948150288L602.0127471428572,257.5285769294609L602.3129542857143,325.9197592030872L602.4466314285714,334.39261005412453L602.6460142857143,323.2332293255763L605.7115257142857,302.6452673402699L605.7443785714286,330.78124732862824L606.0117328571429,297.97220324657184L606.1442771428572,320.9158614250747L606.7107057142857,272.14457724311137L608.8438757142857,342.26764423332435L609.4771428571429,294.8791534358805L610.61,301.79806141419846L613.9745857142857,296.8867541687055L616.07377,302.4511234299703L617.6065257142857,299.106271291321L619.0724428571428,253.71683971177447L619.70571,286.12549230185425L621.9385714285714,304.10999032313174L623.8700928571428,314.2472747347572L624.6370371428571,299.39430802789605L628.8354057142857,343.75040781497955L628.9022442857142,270.0928772687912L629.9682628571428,274.745564295487L631.0014285714286,296.8686497319828L632.9669357142857,282.32105814326894L637.7317328571429,313.3270637528463L638.53153,329.54912422461945L638.8306042857142,298.8627678941597L640.5638757142857,297.2383224124258L640.6635671428571,304.2776031900536L645.6945857142857,251.28622332486242L646.1613228571429,304.1551875770092L649.5598942857143,293.3428553667935L650.26,301.22760567881846L654.6906042857142,292.17130169001496L657.0899957142857,228.6090757332065L657.8229542857143,346.2897274277427L658.3893828571428,308.01498198780143L659.9221385714286,279.56596632979137L661.0549957142857,294.6968323100697L663.2210185714287,309.7608216757124L665.8866314285714,291.90650195967066L666.0531614285715,265.1277674165639L668.4185671428571,295.25355012308466L669.6182628571429,307.45315714045006L671.2507099999999,299.02409910884774L673.3159085714285,321.7587519071319L673.3498942857143,296.0746080333536L674.4827514285714,282.0752821158279L674.9494885714286,279.797953364524L676.3485671428571,311.3867481974038L681.9131614285715,274.5897486778823L682.9451942857144,305.10859428210694L684.0780514285714,324.8246322951534L686.4445900000001,342.03269511867654L687.6771385714286,310.12214435501534L688.7771428571428,264.36268260262233L689.3764242857143,322.4663315144452L689.4432628571429,339.2647208110853L690.2090742857142,289.98735506155276L690.24306,275.2624217055061L690.2759128571429,311.73213692957705L690.3756042857143,325.8463966548443L691.0088714285714,273.73771660436284L692.1757142857143,271.93866161866623L693.2077471428572,309.6519907740029L694.5071342857143,305.221153318882L694.8401942857142,328.81251112710345L697.8060142857144,304.41661666469145L698.2727514285714,331.75709944963455L699.2390785714285,269.863265005025L699.5053,297.5105784129013L700.4716271428571,315.9860411801122L701.4708071428571,288.79210474545306L703.7705071428571,298.44899597222155L705.4029542857143,287.5724428052252L706.5029585714286,289.5048424574462L711.4671385714286,296.5940700308843L712.2997885714286,277.1550375602462L712.39948,324.14279214089566L712.6996871428571,311.02243790301407L713.6331614285714,331.09384890036154L714.7988714285714,314.6503729549321L715.19877,298.48796264420855L717.3308071428571,309.6293155415492L720.16295,305.501401828094L720.8959085714285,333.38785211877394L721.8293828571428,301.4824466922067L723.62836,305.39535426009786L728.0600971428571,306.1682528365742L728.09295,290.9404553445903L732.7580557142857,302.37038121711123L736.7898942857142,283.2463506243446L737.0232628571429,295.6292491040447L741.1876457142857,336.41296560520476L742.78724,341.02696684680205L744.9532628571428,291.83219461007553L745.58653,225.45282637260178L746.5188714285714,283.33340002460915L747.25183,273.07569174333054L747.9519357142857,327.0495628741654L750.2176499999999,328.6659647768194L751.9837742857143,303.6185914792798L753.9164285714286,289.35551277344877L755.3823457142857,321.022777188908L756.3486728571429,305.5394492339004L762.5125485714285,327.1726168665019L763.0121385714285,329.6073188808831L763.11183,308.8746746128256L763.8447885714286,305.64118135788226L764.0453042857143,330.19396391510963L765.6437657142857,339.9861404814504L766.1444885714286,322.893228514628L767.6772442857143,293.78898035125303L768.1428485714285,294.89324885064906L768.5098942857143,352.7960508696058L770.3428571428572,311.8791939832948L770.7087700000001,313.8049289557067L770.9092857142857,316.5937271958048L772.8747928571428,307.91238166798246L773.7742814285714,320.80488556894386L774.5400928571428,281.7111250324683L776.8726457142857,287.9148694574833L777.6056042857143,289.5005780837753L778.7056085714286,311.4676691564647L779.2720371428571,343.6635882312601L779.5054057142858,313.7885609106584L780.8376457142857,277.3146579184316L781.43806,294.1141962977973L781.6374428571428,280.89519969170743L781.7371342857142,297.4780466041782L784.2702028571429,301.77959948507225L784.3030557142857,303.42212386835706L784.3698942857143,285.01662747155535L785.8686642857143,320.7305271490054L786.90183,276.8277021944523L787.8013185714285,311.7821092605591L787.9021428571428,349.96570690518075L788.0686728571429,327.75921083038503L789.9344885714286,318.63018267263067L790.4340785714286,319.3635272681713L790.7342857142856,334.56645350293684L790.7999914285714,311.717275459658L792.4335714285714,292.2368249405514L794.33224,289.78754234313965L795.8321428571428,321.33103778145534L797.1972357142857,274.5597703863274L797.63112,291.3645945462314L797.6639728571429,322.87285144762564L798.3969314285714,277.84338918328285L798.5634614285715,291.4864739206704L798.9305071428572,301.7795484147289L802.6292857142857,275.9584083448757L803.3282585714286,272.00359756025404L805.6279585714285,325.3112049915574L805.7276499999999,282.2319914644415L805.7605028571429,337.36882368678397L807.3600971428571,301.78932838548315L808.1598942857142,323.3330973820253L810.0925485714286,345.66074507886714L812.5576457142856,344.1761429648508L813.8910185714286,364.37145061520016L814.15724,306.06159242445773L815.2232585714285,325.662185926329L815.6571428571427,329.1001393009316L817.7891800000001,301.89320546388626L819.9552028571429,313.81570479815656L820.7210142857143,327.129462426359L823.5203042857144,271.7851697016846L823.6199957142858,321.61120968515223L823.7865257142856,306.41132213581693L826.0193871428571,272.4839141395959L826.6186685714284,316.3855389410799L829.1177514285714,342.1547915420749L830.4171385714285,331.55452893267983L830.4499914285714,284.47663519599223L835.6815257142857,361.3790093809366L837.0806042857142,268.96593353694135L837.11459,295.774084597826L839.2794799999999,314.0748101852157L839.4799957142858,296.96956473047084L840.3466314285714,300.91714906150645L841.0456042857144,314.46662185950714L841.24612,344.102767649022L843.2444800000001,308.46897180513906L845.2111199999999,306.0522976219654L846.2771385714285,339.22357088191944L846.5105071428573,329.00006696310913L853.64071,310.46870770508593L854.4733600000001,312.30920627442276L854.9072442857143,318.6935098984025L855.806732857143,324.5394810329784L856.0401014285713,334.7940740233118L856.5725442857143,293.95636340162974L856.8387657142857,307.940623567863L857.3055028571429,275.47936852411794L858.238977142857,322.4170486330986L860.5375442857143,286.4090603833849L860.6372357142857,296.240816465833L862.0374471428571,295.04577043110675L863.2031571428572,325.55695548382675L864.4357057142857,337.24620379236615L867.4683642857144,337.49651231278074L871.5659085714285,325.44631158492786L871.7992771428571,302.99525240334594L872.1991757142857,313.19657902555036L873.8984614285714,336.929733642123L874.29836,316.5105846768076L877.2970328571429,294.9449831084772L877.3978571428572,319.3293356732889L882.2951985714286,325.4637010368434L882.4288757142858,299.56153786724263L882.4617285714286,345.704703876918L883.8608071428571,320.2117801362818L884.2278528571428,316.4383456761187L884.3943828571429,332.38694999434733L884.5609128571429,316.4142404740507L885.69377,347.4846457866105L886.02683,293.2110683457418L886.8934657142856,311.7229442677715L888.3922357142858,287.8539425378496L889.15918,327.4358589513736L890.8584657142857,322.4866319759326L891.6582628571429,300.864801959558L892.2915300000001,301.5348703996702L892.7571342857143,341.69720126553017L893.8571385714285,337.3839405084198L897.6216228571428,318.66950683702123L899.2552028571429,303.9944181360982L901.9536685714287,331.48752464218575L902.3207142857143,335.0817021971399L902.9868342857143,313.55075185678226L904.9851942857143,313.9164665856145L905.4190785714286,290.2800136642023L906.6516271428571,314.77958092364395L907.3177471428571,332.83008736371994L907.684792857143,326.00009285319936L910.8828485714286,290.21461808952415L915.5808071428571,316.46347228505397L916.8801942857143,368.96213824505156L917.8465214285715,320.9040386405858L919.1459085714285,344.5884338468313L920.7455028571429,293.5111066130074L922.3450971428571,322.5238622562452L922.4119357142857,335.6708624457771L922.6781571428571,282.92215608466756L923.6773371428573,329.2150220383297L924.4442814285713,313.52889374982226L924.9110185714285,316.4393926181577L926.8096871428571,316.8002556643703L931.5076457142858,322.77663492072713L933.6408157142856,325.24029381979597L935.1735714285714,332.2431614426049L936.1727514285715,292.92609582976866L936.90571,316.69768087972295L937.1719314285715,339.47797779738903L941.2366228571428,316.6430866826664L942.2369357142857,307.4691166227514L942.9698942857142,325.66560763933444L944.0687657142856,343.6659630022266L946.5349957142859,321.65270433913577L947.8343828571429,355.4681023047729L950.6993785714286,341.34957820583475L953.1316228571429,305.51976161653346L953.9654057142857,308.753637899052L954.3981571428573,361.9916364523498L954.6983642857143,343.8788624961268L957.3299914285715,312.30935948545283L959.2966314285715,312.7570165802132L963.0951014285714,336.41038655286485L963.5946914285715,351.1900673169982L966.2263185714285,343.79223442619497L969.1252999999999,342.82404285669327L972.09112,293.2219207937067L973.3236685714286,337.64344169064003L974.4893785714286,326.6441409533674L975.5893828571428,341.78062467141586L976.9556085714286,324.1827291494066L980.5535628571428,344.0215785706585L981.0871385714285,345.86261337860066L981.7872442857142,300.2765737446872L982.0863185714285,322.85357239300555L982.6198942857143,310.6988562074574L984.7190785714286,346.0878208252517L984.7519314285713,341.4442243196748L985.2186685714287,315.9886968379671L988.8834614285714,332.67519101229584L989.3173457142858,318.43208081072027L989.6832585714286,323.46207553419197L993.0149914285714,328.03527157144117L995.2478528571429,328.355380483649L996.6469314285714,346.07777273519474L1001.9113185714286,285.47858426245773L1004.7106085714285,319.4045878242363L1004.7774471428571,364.3903211070733L1006.1436728571429,334.0988789742643L1006.1765257142858,353.0603398965164L1006.7101014285715,347.54483218626547L1007.1428528571429,295.3740505982529L1007.2096914285714,314.2666048597206L1010.5085714285714,282.5437248403376L1015.5056042857143,324.28157579898834L1017.6387742857142,329.035024613142L1017.8381571428571,345.7018439376896L1018.038672857143,359.0897684720429L1018.1712171428571,346.9842840974981L1018.2052028571429,311.66860542243177L1020.7042857142857,344.41502449593764L1022.0365257142856,293.3325902277773L1023.8694885714286,344.7563659033992L1027.8673414285713,346.9883824925531L1028.1335628571428,335.98835400288755L1029.7331571428572,286.46740825067866L1031.8651942857143,343.8008525466377L1031.9660185714285,330.9390036192807L1032.9980514285714,296.69674695621836L1033.3322442857143,332.92040526595986L1033.56448,336.57395209507513L1034.1648942857141,301.47731412269854L1036.0635628571429,313.3453724709424L1036.7308157142857,352.85287939418447L1036.8305071428572,326.6000161767006L1037.52948,349.40808259357107L1040.3956085714285,372.88134023276245L1043.4271342857144,338.63995176553726L1043.4939728571428,345.32636200568896L1044.5599914285713,313.3846711001613L1045.1604057142856,309.38343737342143L1054.5891757142856,325.8955007899891L1055.4558114285715,343.18277371607047L1056.9217285714285,341.6034871854566L1058.7546914285715,317.4745629429817L1060.81989,345.50840224461126L1061.2537742857144,315.6649619313804L1064.3192857142856,345.1865952434865L1065.28448,344.8551104122942L1066.585,316.8272463408383L1068.74989,335.2537326487628L1075.9140785714285,325.124032183127L1078.5457057142858,319.19307999719274L1079.4123414285716,313.0972727428783L1080.1453000000001,344.2188122367317L1080.7785671428571,317.8345833285289L1081.4446871428572,334.2522304478017L1081.6112171428572,316.0099421008067L1082.1447928571429,332.79283154823565L1082.5446914285715,327.69182351231575L1083.0771342857142,347.265745527365L1083.9766228571427,354.7954803474925L1086.2423371428572,352.8515771004287L1088.3086685714286,358.067684922706L1088.57489,344.5337119739164L1095.2394885714284,330.2864523069425L1095.4728571428573,334.639713910493L1095.7719314285714,363.6493287276138L1097.4383642857142,331.40558227625763L1097.5380557142857,318.108550185507L1098.2381614285714,345.10949179259217L1098.63806,315.6775763061913L1099.2701942857143,291.7098300673745L1099.9034614285713,347.69624298675495L1104.43489,329.28108152747154L1107.1344885714286,318.2042049386285L1107.1673414285715,327.48172011971474L1108.3001985714286,316.50141755017364L1108.9334657142856,357.4521085389636L1110.4662214285713,349.8946680575609L1112.86448,321.54083475199616L1113.0321428571428,309.1780579875816L1113.8976457142858,351.21343199908733L1115.4304014285715,352.7174280759963L1115.9299914285714,335.85020872408694L1118.6624428571429,365.05283113636756L1120.0955071428573,364.5219804522666L1120.9621428571427,343.199039620432L1121.3948942857144,340.52048948407173L1122.3272357142857,364.50083733011377L1123.7603,390.92260294068944L1127.3254014285715,295.38646069169044L1128.1580514285715,339.138117429885L1128.3914200000002,366.3655432422053L1128.525097142857,332.2058545567773L1131.823977142857,307.69727338173175L1131.9236685714286,318.6003065217625L1133.2559085714286,307.3079896894368L1136.3882585714284,351.36194455759096L1136.854995714286,325.69075978344137L1137.454277142857,360.6600538546389L1138.8544885714286,340.34917401725596L1142.1522357142856,337.0084585764192L1147.9173457142858,301.8275290023197L1149.6823371428573,357.1034768399867L1153.2814242857144,369.65963145955044L1153.6473371428572,323.5175634622574L1159.7115214285714,375.10512172904885L1160.945202857143,322.7434136623686L1161.6441757142857,353.11164005642587L1162.8778571428572,354.0371495864608L1164.07642,339.1656954153018L1164.9430557142857,363.7526440322399L1167.0093871428571,343.3106538558548L1169.374792857143,320.9083796197718L1170.2414285714285,331.2997134544633L1171.5736685714285,325.5668120600961L1173.1064242857142,352.575158866969L1175.2724471428571,340.3091093328866L1175.5058157142857,336.79363117705697L1175.772037142857,321.5155038616874L1177.3716314285714,333.73507938330823L1177.6707057142858,295.90947207808495L1179.6373457142859,335.8728073510257L1180.070097142857,355.6152998019349L1184.9017328571429,356.8859299448403L1185.3016314285715,346.6227443692359L1186.400502857143,337.89878063987607L1187.8007142857143,351.60793763399124L1189.9656042857143,336.97396055947655L1192.4318342857143,351.8328386585821L1193.997442857143,363.79012966426933L1195.1971385714285,329.3955812372945L1196.1634657142856,352.11727493595L1197.129792857143,295.6618830534545L1197.5625442857142,322.4312461885539L1197.6622357142858,327.2836948633194L1199.8622442857143,326.08558460799134L1199.9619357142858,336.8486211692745L1201.395,352.55536910891533L1203.027447142857,305.5433816503395L1204.8932628571429,349.0896079323509L1209.2910142857143,349.3300854116678L1209.5243828571429,366.48440946638584L1209.5572357142858,330.36944161490965L1209.7906042857142,332.0623468919234L1211.956627142857,340.997320512479L1212.8901014285714,327.7088299366561L1213.29,323.2839166413654L1213.7227514285714,341.8121733760292L1213.95612,349.7059376036579L1217.75459,355.403740904548L1217.8871342857142,328.74693680622363L1218.786622857143,363.0943090035157L1218.8534614285716,348.99517886747014L1221.0863228571427,324.5567683442073L1221.852134285714,361.9125157228925L1224.1846871428572,372.8514130115509L1224.5177471428572,362.49165341664445L1225.0841757142857,339.23152508789843L1225.3175442857143,296.8039946772836L1225.4172357142859,329.975638197227L1225.883972857143,341.92142560807144L1226.2510185714286,343.8391936069185L1230.782447142857,317.4180025377057L1232.0149957142858,289.8057233853774L1233.8479585714285,351.56922631372106L1234.0801942857145,353.4493427019228L1236.2462171428572,344.0539954711091L1237.0800000000002,321.76309288631785L1237.3790742857143,352.19468480890447L1237.778972857143,334.40149629386985L1238.4122399999999,339.4302780966867L1238.9786685714284,345.91788425770676L1239.4782585714286,342.72289804166013L1240.7776457142857,342.4811565713449L1241.1775442857142,334.7013430473479L1242.0101942857143,341.36330336061394L1243.0105071428573,342.74471784586257L1243.2438757142857,361.3087110532956L1245.1765300000002,327.1542315428907L1246.7092857142857,340.8213576444171L1247.34142,331.3620703437112L1247.5747885714286,304.0680615712296L1249.1075442857143,371.45486893708056L1250.8408157142858,352.0350516831333L1250.9405071428573,341.33986207300967L1252.106217142857,378.1800160326741L1255.2057142857143,342.6453349576755L1256.3385714285714,342.26502687822693L1256.438262857143,333.5948402204297L1258.1704014285715,315.9831301705404L1258.204387142857,338.30696035921574L1258.90336,306.22596232457596L1260.7363228571428,366.6410805122419L1263.6353042857143,366.12663617594677L1263.6681571428571,340.7814972414212L1264.9346914285713,340.2380960204385L1265.4342814285715,368.8557459522378L1266.1004014285716,346.3286302618005L1266.4006085714286,324.4447455460375L1266.7008157142857,357.2780735763637L1267.6999957142857,338.6626014628194L1269.3324428571427,346.269861064174L1271.1654057142857,315.8819342851639L1272.2314242857142,345.75576145269656L1272.964382857143,333.482255648483L1275.3966271428571,362.1867634667592L1280.4616314285713,308.44193005832756L1282.0940785714286,343.07823272320354L1283.293774285714,329.9036290130832L1285.3589728571428,309.5413213399323L1287.9248942857143,359.695896842263L1288.0245857142856,326.5246618850665L1290.5565214285714,362.9640923955224L1291.2566271428573,360.36818684231156L1291.5228485714285,388.5882541510192L1291.9567328571427,335.0240693146532L1292.0235714285714,359.8161164305427L1292.2229542857142,340.7172124467113L1294.3549914285716,349.8522286022251L1295.4878485714287,349.735251980749L1295.5546871428571,380.4692441739819L1295.588672857143,336.569062109698L1298.4536685714286,330.22080138054764L1298.55336,318.4029707150026L1299.4528485714286,328.96845442056656L1305.15112,364.2563380612569L1305.3844885714286,363.0724891993133L1307.5833642857144,365.98703539236027L1307.7498942857144,376.79709497229624L1309.1489728571428,351.95554792610085L1311.2153042857144,341.36013699932533L1311.781732857143,359.6534063165838L1314.0134614285714,353.8361494825645L1314.6807142857144,356.1100437532772L1315.9132628571429,359.8668292815035L1316.045807142857,368.0929720713334L1318.2458157142858,347.04273410547864L1319.9779542857143,365.9608490738002L1320.4775442857142,374.5696619464593L1320.977134285714,337.76721066778356L1321.51071,328.771093078635L1321.9434614285715,334.65838012099266L1323.1103042857142,350.8703158971938L1323.7435714285714,333.32130746137017L1323.975807142857,339.88698740980846L1331.739277142857,344.434520599517L1333.7387700000002,332.64564681865954L1334.73795,323.7293777113611L1335.3712171428572,364.3892358622768L1338.337037142857,364.04614529555494L1339.6364242857142,351.95129632001573L1339.7701014285715,354.7563604644754L1340.0691757142858,357.48787054690445L1340.2696914285714,357.36802121861416L1341.1023414285714,346.4598555090753L1343.0021428571429,359.2691402855245L1344.4340742857144,358.6609435663982L1347.8666314285715,337.5562390793454L1349.8989771428571,343.2839185311036L1351.7308071428572,358.55104018747807L1352.8308114285715,367.8191456577995L1354.0633599999999,345.36396254599094L1356.4627514285714,363.8772684376348L1356.6621342857143,357.2979399399324L1356.9623414285713,355.0297400125049L1358.7613185714285,350.98527524010706L1361.2604014285714,350.3102657442743L1362.3932585714285,347.71176837113774L1364.7926499999999,355.7826573171399L1367.7244842857142,343.43189485100186L1368.8901942857144,378.0881404849616L1370.9236728571427,336.44252256642693L1371.555807142857,353.2580459632657L1372.9888714285714,386.37209490347993L1375.2885714285715,365.2221548597921L1377.4534614285715,331.0167837522247L1378.18642,358.84257524257356L1382.4516271428572,346.64931371537125L1385.8173457142857,357.3511552377181L1387.6491757142858,344.5776452367956L1388.1487657142857,362.23613572120667L1390.4484657142857,371.89307801831853L1391.5813228571428,375.1960397078233L1394.0464200000001,346.60540598766374L1394.5799957142858,366.74632372233L1394.9459085714286,351.1255144029856L1396.0787657142857,351.71121463585985L1398.7443785714286,339.3124205117876L1400.777857142857,360.1536020270803L1400.81071,365.49189564585686L1401.3102999999999,364.2238317877054L1402.7433642857143,358.6246708550237L1403.4094842857144,366.6961343423887L1404.8425485714286,344.84548365257007L1405.0090785714285,380.8541102815758L1407.4073371428572,352.15370085835457L1412.1064285714285,350.25221153145486L1412.20612,347.93111549588764L1412.87224,376.3758029422977L1412.905092857143,359.2466565668583L1413.0059171428572,370.7815958329223L1417.4365214285715,359.5232152437622L1420.63571,378.2366913462227L1421.30183,357.4909092323347L1422.6012171428572,332.3724460168319L1422.968262857143,375.16226944327354L1430.9979542857143,374.2893751344898L1432.4310185714287,370.42812521891165L1433.7972442857142,367.98666915162045L1436.1286642857142,356.21577213162726L1437.0621385714287,356.36288025568837L1438.7614242857142,367.16954365779054L1441.9934657142858,378.70656404034656L1442.2596871428573,321.4322592020035L1443.0266314285714,347.2989157153802L1443.1931614285713,388.13566876812416L1443.75959,346.2941577800296L1445.4588757142858,356.8366981338371L1446.724277142857,377.42995866726744L1448.55724,377.89029397476804L1453.0886685714286,360.7638926302845L1453.52142,380.23786998336965L1455.9208114285714,344.57086564871395L1459.4190742857143,359.0107626508583L1462.3180557142857,358.2799843400717L1462.7179542857143,380.43889562243766L1463.783972857143,341.3720874596726L1464.717447142857,353.5724605321884L1467.6164285714285,357.3461886468259L1467.9494885714284,368.43733939663935L1468.1488714285713,371.2785868793726L1468.2825485714286,349.79451911422336L1468.9158157142856,356.09666332331574L1469.3157142857142,390.01620648665863L1469.38142,341.7562130472877L1469.8481571428572,338.11724680120295L1470.0486728571427,398.3871209323406L1472.4809171428572,374.7285928550092L1472.6803,367.7219460267913" style="fill: none;" fill="none"></path></g></g></g></g></g></g><g transform="translate(50, 377)" clip-path="url(#clip_1)"><clipPath id="clip_1"><rect width="1586" height="23"></rect></clipPath><g><g><line x1="0" y1="0" x2="0" y2="5" style="visibility: inherit;" fill="rgb(0, 0, 0)" stroke="rgb(204, 204, 204)" stroke-width="1px"></line><line x1="113.28571428571428" y1="0" x2="113.28571428571428" y2="5" style="visibility: inherit;" fill="rgb(0, 0, 0)" stroke="rgb(204, 204, 204)" stroke-width="1px"></line><line x1="226.57142857142856" y1="0" x2="226.57142857142856" y2="5" style="visibility: inherit;" fill="rgb(0, 0, 0)" stroke="rgb(204, 204, 204)" stroke-width="1px"></line><line x1="339.85714285714283" y1="0" x2="339.85714285714283" y2="5" style="visibility: inherit;" fill="rgb(0, 0, 0)" stroke="rgb(204, 204, 204)" stroke-width="1px"></line><line x1="453.1428571428571" y1="0" x2="453.1428571428571" y2="5" style="visibility: inherit;" fill="rgb(0, 0, 0)" stroke="rgb(204, 204, 204)" stroke-width="1px"></line><line x1="566.4285714285714" y1="0" x2="566.4285714285714" y2="5" style="visibility: inherit;" fill="rgb(0, 0, 0)" stroke="rgb(204, 204, 204)" stroke-width="1px"></line><line x1="679.7142857142857" y1="0" x2="679.7142857142857" y2="5" style="visibility: inherit;" fill="rgb(0, 0, 0)" stroke="rgb(204, 204, 204)" stroke-width="1px"></line><line x1="793" y1="0" x2="793" y2="5" style="visibility: inherit;" fill="rgb(0, 0, 0)" stroke="rgb(204, 204, 204)" stroke-width="1px"></line><line x1="906.2857142857142" y1="0" x2="906.2857142857142" y2="5" style="visibility: inherit;" fill="rgb(0, 0, 0)" stroke="rgb(204, 204, 204)" stroke-width="1px"></line><line x1="1019.5714285714287" y1="0" x2="1019.5714285714287" y2="5" style="visibility: inherit;" fill="rgb(0, 0, 0)" stroke="rgb(204, 204, 204)" stroke-width="1px"></line><line x1="1132.857142857143" y1="0" x2="1132.857142857143" y2="5" style="visibility: inherit;" fill="rgb(0, 0, 0)" stroke="rgb(204, 204, 204)" stroke-width="1px"></line><line x1="1246.142857142857" y1="0" x2="1246.142857142857" y2="5" style="visibility: inherit;" fill="rgb(0, 0, 0)" stroke="rgb(204, 204, 204)" stroke-width="1px"></line><line x1="1359.4285714285713" y1="0" x2="1359.4285714285713" y2="5" style="visibility: inherit;" fill="rgb(0, 0, 0)" stroke="rgb(204, 204, 204)" stroke-width="1px"></line><line x1="1472.7142857142858" y1="0" x2="1472.7142857142858" y2="5" style="visibility: inherit;" fill="rgb(0, 0, 0)" stroke="rgb(204, 204, 204)" stroke-width="1px"></line><line x1="1586" y1="0" x2="1586" y2="5" style="visibility: inherit;" fill="rgb(0, 0, 0)" stroke="rgb(204, 204, 204)" stroke-width="1px"></line></g><g transform="translate(0, 8)"><text x="0" y="0" dx="0em" dy="0.95em" style="text-anchor: middle; visibility: hidden; font-family: Roboto, sans-serif; font-size: 12px; font-weight: 200;" fill="rgb(33, 33, 33)" stroke="none" stroke-width="1px">-100k</text><text x="113.28571428571428" y="0" dx="0em" dy="0.95em" style="text-anchor: middle; visibility: inherit; font-family: Roboto, sans-serif; font-size: 12px; font-weight: 200;" fill="rgb(33, 33, 33)" stroke="none" stroke-width="1px">0</text><text x="226.57142857142856" y="0" dx="0em" dy="0.95em" style="text-anchor: middle; visibility: inherit; font-family: Roboto, sans-serif; font-size: 12px; font-weight: 200;" fill="rgb(33, 33, 33)" stroke="none" stroke-width="1px">100k</text><text x="339.85714285714283" y="0" dx="0em" dy="0.95em" style="text-anchor: middle; visibility: inherit; font-family: Roboto, sans-serif; font-size: 12px; font-weight: 200;" fill="rgb(33, 33, 33)" stroke="none" stroke-width="1px">200k</text><text x="453.1428571428571" y="0" dx="0em" dy="0.95em" style="text-anchor: middle; visibility: inherit; font-family: Roboto, sans-serif; font-size: 12px; font-weight: 200;" fill="rgb(33, 33, 33)" stroke="none" stroke-width="1px">300k</text><text x="566.4285714285714" y="0" dx="0em" dy="0.95em" style="text-anchor: middle; visibility: inherit; font-family: Roboto, sans-serif; font-size: 12px; font-weight: 200;" fill="rgb(33, 33, 33)" stroke="none" stroke-width="1px">400k</text><text x="679.7142857142857" y="0" dx="0em" dy="0.95em" style="text-anchor: middle; visibility: inherit; font-family: Roboto, sans-serif; font-size: 12px; font-weight: 200;" fill="rgb(33, 33, 33)" stroke="none" stroke-width="1px">500k</text><text x="793" y="0" dx="0em" dy="0.95em" style="text-anchor: middle; visibility: inherit; font-family: Roboto, sans-serif; font-size: 12px; font-weight: 200;" fill="rgb(33, 33, 33)" stroke="none" stroke-width="1px">600k</text><text x="906.2857142857142" y="0" dx="0em" dy="0.95em" style="text-anchor: middle; visibility: inherit; font-family: Roboto, sans-serif; font-size: 12px; font-weight: 200;" fill="rgb(33, 33, 33)" stroke="none" stroke-width="1px">700k</text><text x="1019.5714285714287" y="0" dx="0em" dy="0.95em" style="text-anchor: middle; visibility: inherit; font-family: Roboto, sans-serif; font-size: 12px; font-weight: 200;" fill="rgb(33, 33, 33)" stroke="none" stroke-width="1px">800k</text><text x="1132.857142857143" y="0" dx="0em" dy="0.95em" style="text-anchor: middle; visibility: inherit; font-family: Roboto, sans-serif; font-size: 12px; font-weight: 200;" fill="rgb(33, 33, 33)" stroke="none" stroke-width="1px">900k</text><text x="1246.142857142857" y="0" dx="0em" dy="0.95em" style="text-anchor: middle; visibility: inherit; font-family: Roboto, sans-serif; font-size: 12px; font-weight: 200;" fill="rgb(33, 33, 33)" stroke="none" stroke-width="1px">1M</text><text x="1359.4285714285713" y="0" dx="0em" dy="0.95em" style="text-anchor: middle; visibility: inherit; font-family: Roboto, sans-serif; font-size: 12px; font-weight: 200;" fill="rgb(33, 33, 33)" stroke="none" stroke-width="1px">1.1M</text><text x="1472.7142857142858" y="0" dx="0em" dy="0.95em" style="text-anchor: middle; visibility: inherit; font-family: Roboto, sans-serif; font-size: 12px; font-weight: 200;" fill="rgb(33, 33, 33)" stroke="none" stroke-width="1px">1.2M</text><text x="1586" y="0" dx="0em" dy="0.95em" style="text-anchor: middle; visibility: hidden; font-family: Roboto, sans-serif; font-size: 12px; font-weight: 200;" fill="rgb(33, 33, 33)" stroke="none" stroke-width="1px">1.3M</text></g><line x1="0" y1="0" x2="1586" y2="0" fill="rgb(0, 0, 0)" stroke="rgb(204, 204, 204)" stroke-width="1px"></line></g></g></g></g></svg>